<svg width="16" height="16" viewBox="0 0 16 16" fill="none" xmlns="http://www.w3.org/2000/svg">
<path d="M1.97603 3.67033H1.95282C1.70008 3.68553 1.44692 3.64861 1.20913 3.56186C0.971352 3.47512 0.754056 3.34042 0.570815 3.16617C0.387575 2.99193 0.242326 2.78188 0.144139 2.54914C0.0459518 2.31641 -0.00306549 2.06599 0.000148408 1.81352C0.00336231 1.56104 0.0587382 1.31194 0.162818 1.08177C0.266898 0.851594 0.417447 0.64529 0.605064 0.47574C0.79268 0.30619 1.01334 0.177033 1.25325 0.0963368C1.49316 0.0156402 1.74719 -0.0148638 1.99945 0.0067296C2.25297 -0.01158 2.50754 0.0226143 2.74717 0.107162C2.98679 0.19171 3.20628 0.324783 3.39184 0.498014C3.5774 0.671245 3.72501 0.880887 3.82539 1.11376C3.92577 1.34663 3.97676 1.5977 3.97514 1.85117C3.97352 2.10464 3.91933 2.35503 3.81597 2.58661C3.71262 2.81819 3.56234 3.02593 3.37458 3.19679C3.18682 3.36765 2.96565 3.49792 2.72496 3.57941C2.48428 3.66091 2.22929 3.69186 1.97603 3.67033Z" fill="#1A202E"/>
<path d="M3.63651 6.13629H0.339478V16H3.63651V6.13629Z" fill="#1A202E"/>
<path d="M12.2908 6.13629C11.7352 6.1378 11.1872 6.26453 10.6876 6.50699C10.1881 6.74945 9.7499 7.10138 9.40592 7.53647V6.13629H6.10889V16H9.40592V11.4791C9.40592 11.0431 9.5796 10.625 9.88876 10.3167C10.1979 10.0084 10.6172 9.83519 11.0544 9.83519C11.4917 9.83519 11.911 10.0084 12.2201 10.3167C12.5293 10.625 12.703 11.0431 12.703 11.4791V16H16V9.83519C16 9.34944 15.904 8.86845 15.7176 8.41968C15.5312 7.97091 15.258 7.56315 14.9136 7.21967C14.5692 6.8762 14.1603 6.60374 13.7103 6.41785C13.2602 6.23197 12.7779 6.13629 12.2908 6.13629Z" fill="#1A202E"/>
</svg>
