<svg width="20" height="20" viewBox="0 0 20 20" fill="none" xmlns="http://www.w3.org/2000/svg">
<path d="M5.83333 13.3333C3.99238 13.3333 2.5 11.8409 2.5 9.99999C2.5 8.41078 3.61214 7.08133 5.10059 6.74745C5.03474 6.45328 5 6.14736 5 5.83332C5 3.53214 6.86548 1.66666 9.16667 1.66666C11.1828 1.66666 12.8644 3.09853 13.2501 5.0008C13.2778 5.00026 13.3055 4.99999 13.3333 4.99999C15.6345 4.99999 17.5 6.86547 17.5 9.16666C17.5 11.1825 16.0685 12.8639 14.1667 13.25M7.5 15.8333L10 18.3333M10 18.3333L12.5 15.8333M10 18.3333V8.33332" stroke="#009E61" stroke-width="2" stroke-linecap="round" stroke-linejoin="round"/>
</svg>
