<svg width="18" height="16" viewBox="0 0 18 16" fill="none" xmlns="http://www.w3.org/2000/svg">
<path d="M5.661 16C12.4533 16 16.1685 9.84449 16.1685 4.50702C16.1685 4.33179 16.1685 4.15755 16.1577 3.98528C16.8806 3.41287 17.5044 2.70418 18 1.89243C17.326 2.21926 16.6109 2.43362 15.8787 2.52836C16.6497 2.02341 17.2267 1.22928 17.5023 0.293746C16.7775 0.764182 15.9846 1.09577 15.1578 1.27422C14.6011 0.626245 13.8645 0.197111 13.0623 0.0532596C12.26 -0.0905917 11.4368 0.0588652 10.72 0.478489C10.0033 0.898113 9.43297 1.56449 9.09746 2.37445C8.76195 3.18441 8.67993 4.09276 8.8641 4.95886C7.39583 4.87838 5.95944 4.46107 4.64818 3.73403C3.33692 3.00699 2.18009 1.98646 1.2528 0.738699C0.780586 1.62782 0.63593 2.68037 0.848282 3.68205C1.06063 4.68373 1.61403 5.55923 2.3958 6.13031C1.80833 6.11171 1.23357 5.93884 0.72 5.62629V5.67748C0.72035 6.61001 1.01556 7.51371 1.55556 8.23533C2.09556 8.95695 2.84712 9.45209 3.6828 9.63678C3.13903 9.79892 2.5685 9.8225 2.0151 9.70569C2.25104 10.5084 2.71051 11.2105 3.32921 11.7135C3.94792 12.2166 4.69492 12.4955 5.4657 12.5113C4.69991 13.1694 3.82301 13.656 2.88515 13.9431C1.9473 14.2303 0.966891 14.3124 0 14.1847C1.68894 15.3703 3.65417 15.9991 5.661 15.9961" fill="#1A202E"/>
</svg>
